<svg width="317" height="64" fill="none" xmlns="http://www.w3.org/2000/svg"><path d="M.747 0v63.53H317V0H.747ZM5.3 59.069V4.437h307.146v54.632H5.3Z" fill="#000"/><path d="M257.008 44.282h-2.135v4.117h2.135v-4.117ZM257.008 29.71h-2.135v4.117h2.135V29.71ZM257.008 51.567h-2.135v4.123h2.135v-4.123ZM257.008 36.983h-2.135v4.136h2.135v-4.136ZM257.008 7.846h-2.135v4.117h2.135V7.846ZM257.008 15.138h-2.135v4.117h2.135v-4.117ZM257.008 22.405h-2.135v4.13h2.135v-4.13ZM267.544 56.318c-.727-.43-.893-1.33-.505-1.994 0 0 .043-.166.154-.455v.074c.504-.837 1.624-3.268 2.24-6.652h-1.286c-2.111 0-3.896-1.791-3.896-3.933 0-2.172 1.791-3.944 3.896-3.944 1.84 0 3.452 1.23 3.785 2.732.061.16.221.757.289.923l-.068-.055c.16.837.234 1.735.234 2.492-.074 5.12-2.283 9.335-2.794 10.209l.068-.043c-.388.615-.905.88-1.404.88-.283 0-.51-.123-.775-.228h.062v-.006ZM47.095 27.125h.363c.013.246.13.43.339.59.283 0 .59-.122.867-.325.191.147.413.314.69.437.135-.031.24-.111.338-.271l1.31.45h.265l.173.067h.264c.4.535.911.997 1.551 1.384a3.55 3.55 0 0 0 .96 1.803v.345c-.59.942-.548 1.772.166 2.492v.536c-.53.184-.652.72-.37 1.636l.462.167c-.19.504-.147 1.021.074 1.55-.154.413-.197.862-.172 1.379l-.099.184v.247a.97.97 0 0 0 .53.504l.344.794c-.301-.148-.474-.074-.517.265.148 0 .351.055.597.178h.265l.363.08c.462-.966 1.237-1.31 2.314-.954v.517l-.591.27c-.092.438-.092.96 0 1.545-.258.13-.492.333-.695.604a3.13 3.13 0 0 1-.96-.351c-.203.264-.53.449-.942.523-.35-.406-.812-.51-1.384-.259-.486-.517-1.12-.8-1.896-.843-.517.394-1.15.585-1.92.585-.221.172-.4.4-.51.683l-.61-.074h-.276l-.247.339c-1.513.344-3.058.258-4.652-.271l-.535-.782-.086-.154c-.93-.135-1.422-.732-1.477-1.815-.702-.8-.85-1.748-.425-2.83l-.16-.862c.413-.29.72-.739.942-1.286.295-.302.701-.535 1.212-.702.541-.794 1.526-1.206 2.954-1.206a.54.54 0 0 0 .252.259c.277-.283.572-.573.942-.862.172.265.4.45.701.603.492-.652 1.323-.935 2.53-.867.11-.259.14-.548.08-.862.295-.105.553-.308.762-.603-.258-.32-.283-.714-.08-1.206-.615-.542-1.397-.874-2.32-1.028-.56-.634-1.095-.572-1.569.172-.763-.683-1.249-.707-1.483-.086-.726.166-.812.69-.234 1.545-.48.4-.775.954-.978 1.624l-.43.284c-.376-.044-.807.012-1.275.153a3.586 3.586 0 0 0-.701-.246 1.474 1.474 0 0 1-.345-.867c-.941-.819-.898-1.527.093-2.16l-.191-.776c.486-.289.923-.72 1.31-1.292.339-.08.714-.246 1.114-.517.265.03.597.08.966.16.376-.08.874-.154 1.471-.16a2.65 2.65 0 0 0 .566-.437Zm3.81 8.966c-.42-.086-.838-.05-1.293.099-.338-.142-.708-.167-1.132-.099-.283.197-.671.326-1.102.338l-.283.431c-.664-.541-1.163-.498-1.458.093-.659-.037-1.046.264-1.145.941-.4.105-.603.37-.59.782l.16.264c-.597.308-.597.659 0 1.034-.284.855.073 1.262 1.052 1.194.301.498.775.708 1.384.597.388.178.683.092.88-.24.517.043.991-.105 1.471-.443l.763.086c.03-.234-.012-.456-.074-.69.443-.245.837-.652 1.2-1.212.27-.055.535-.16.794-.326l-.197-.517c.363-.683.228-1.212-.338-1.563.307-.277.332-.584.08-.941l-.173.172Zm-5.268-5.163c.307.123.283.215-.099.27l.099-.27ZM81.082 27.63c.566.51 1.298.825 2.16.941.566.45 1.144.394 1.698-.153.8.295 1.36.018 1.68-.794.462.123.93.123 1.446 0 .296.64.837 1.163 1.6 1.514.037.572.19 1.163.486 1.76-.172.326-.098.646.16.953-.19.523-.166 1.059.08 1.594-.197.425-.147.892.154 1.428l-.234.24c-.03.363.086.67.394.978-.222.708-.16 1.49.154 2.295-.135.37-.179.794-.154 1.28l.406.24c-.184.179-.283.431-.332.72 1.144.382 1.717 1.237 1.686 2.566-.8.954-1.815 1.243-3.052.85-1.022.301-1.982.073-2.868-.714l-.418.424c-.493-.03-.911.154-1.293.542-.455-.13-.966-.098-1.501.086-.67-.184-1.458-.246-2.344-.166l-.16-.08-.56.08a4.384 4.384 0 0 0-.696-.388 4.312 4.312 0 0 0-1.71.554c-.573-.184-1.231-.24-2-.166-.327-.326-.782-.585-1.36-.794l-.08-.166-.24-.148c.197-.51.59-.904 1.193-1.132.08-.228.21-.455.413-.714.043-.227.006-.51-.087-.794.37-.855.431-1.747.234-2.713.099-.413.099-.862 0-1.367.05-.252.166-.523.407-.775v-.344l-.154-.536-.099-.64-.061-.172c0-.037-.031-.105-.093-.154l.093-.154c.363-.714.406-1.538.16-2.498.24-.172.406-.43.467-.794-.295-.166-.51-.474-.627-.941-.536-.062-.93-.29-1.219-.653.363-.424.813-.597 1.379-.48.701-.381 1.335-.141 1.84.726.227-.123.443-.03.627.24.05-.295.154-.59.333-.867.744.006 1.433-.246 2.092-.714Zm-.96 2.867c-.27.271-.43.671-.48 1.213l-.32-.172c-.954 1.076-1.243 1.913-.806 2.48-.136.652-.031 1.335.307 2.073-.443 1.699-.215 2.578.757 2.622.062.615-.246.916-.91.953.098.345.387.517.91.48-.141.45-.043.819.29 1.114.492.24.658.13.492-.314-.246-.326-.154-.615.246-.867.35.406.781.474 1.274.215-.013-.283-.142-.628-.32-1.028.234-.381.283-.775.184-1.193.228-.382.265-.837.05-1.354.707-.714.707-1.526 0-2.394v-.48c.67-.658.67-1.378 0-2.135.049-.29.018-.585-.05-.893-.48-.24-1.015-.338-1.624-.32Zm7.058-.726c-.215.111-.388.326-.486.64a4.657 4.657 0 0 0-1.034.493c-.135.664-.51 1.249-1.132 1.747-.074.523.141.886.64 1.126 0 .117.037.247.08.382-.579.757-.616 1.538-.154 2.4-.425.744-.252 1.378.48 1.926l-.48.314c.19.467.19 1.009 0 1.587 1.31.597 2.105.363 2.394-.713.277-.216.461-.505.578-.874-.258-.037-.406-.191-.486-.468.474-.221.548-.634.24-1.206.578-.658.745-1.495.474-2.554.154-.338.154-.72 0-1.12.228-.566.055-.978-.474-1.28v-.393c.702-.4.745-.794.16-1.194-.043-.443-.308-.702-.8-.813Zm-1.6 11.581c.092.191.19.191.32 0h-.32Zm1.04.167-.406.08c.228.197.37.16.406-.08ZM101.032 27.71c.258.05.516.154.83.314.714-.27 1.508-.338 2.388-.252l.314.498c.658-.104 1.187.148 1.587.75.819.142 1.342.616 1.551 1.465.277.019.548.123.843.326-.191.905.031 1.674.677 2.314l.16 1.231v.252l.086.154v.277l.24.08c-.277.615-.24 1.237.068 1.877-.332.517-.499 1.138-.48 1.877a2.381 2.381 0 0 0-.412 1.07c-.031.29-.111.585-.265.911-.037.086-.049.203-.08.32-.394.523-1.003 1.07-1.815 1.65-.142.16-.333.313-.579.48l-.258.338c-.542.037-1.102.27-1.643.738a.952.952 0 0 1-.652-.246c-.64-.117-1.311-.074-2.068.166-.24-.086-.462-.27-.665-.48-.24.13-.541.203-.904.234l-.253-.56c-.72-.105-1.261-.51-1.655-1.243l-.898-.578c-.007-.431-.191-.862-.511-1.311l-.08-.985c-.622-.892-.788-1.957-.499-3.2l-.406-.658c.351-.77.536-1.71.579-2.8l.584-.246c0-.548.246-.997.733-1.305.08-.535.301-1.138.658-1.803.394-.086.745-.301 1.09-.683.787.05 1.372-.283 1.735-.972Zm.898 2.375a1.7 1.7 0 0 0-.566.646c-1.348.29-1.846.733-1.495 1.33-.831.147-1.243.744-1.243 1.815l-.659-.172h-.252c.086.215.246.406.498.566l.32 1.169c-.154.308-.529.585-1.052.794.086.234.258.418.486.584.099.4.314.782.659 1.151l-.093.732c.259.24.597.437 1.016.597.018.456.129.936.32 1.465.233.148.523.258.916.314l.08.19a1.077 1.077 0 0 0-.08.493c.277.166.622.203.985.08l.486.086c.819.221 1.416-.03 1.748-.75.88.055 1.347-.37 1.397-1.287.843-.19.984-.61.406-1.25 1.064-.571 1.347-1.414.824-2.547.117-.227.185-.504.185-.812a4.231 4.231 0 0 1-.757-.154l.4-.677a1.934 1.934 0 0 0-.4-.664c.049-.419-.092-.8-.412-1.139-.025-.615-.32-1.089-.899-1.39-.449-.733-1.138-1.016-2.086-.831-.141-.222-.406-.32-.732-.339ZM119.387 27.63c.554.51 1.274.825 2.154.941.566.45 1.145.394 1.686-.153.794.295 1.36.018 1.68-.794.462.123.942.123 1.453 0 .301.64.818 1.163 1.593 1.514.044.572.191 1.163.48 1.76-.166.326-.11.646.154.953a1.96 1.96 0 0 0 .105 1.594c-.222.425-.16.892.129 1.428l-.24.24c-.031.363.111.67.4.978-.221.708-.16 1.49.16 2.295-.129.37-.191.794-.16 1.28l.406.24c-.178.179-.289.431-.307.72 1.138.382 1.71 1.237 1.68 2.566-.8.954-1.816 1.243-3.047.85-1.033.301-1.987.073-2.886-.714l-.406.424c-.486-.03-.917.154-1.274.542-.473-.13-.966-.098-1.526.086-.677-.184-1.446-.246-2.326-.166l-.154-.08-.566.08a4.676 4.676 0 0 0-.732-.388 4.27 4.27 0 0 0-1.686.554c-.56-.184-1.249-.24-1.988-.166-.357-.326-.794-.585-1.366-.794l-.08-.166-.252-.148c.197-.51.597-.904 1.194-1.132.08-.228.227-.455.412-.714.043-.227.012-.51-.074-.794.357-.855.437-1.747.246-2.713.086-.413.086-.862 0-1.367.043-.252.16-.523.382-.775v-.344l-.16-.536-.074-.64-.08-.172a.253.253 0 0 0-.074-.154l.074-.154c.369-.714.418-1.538.148-2.498.252-.172.406-.43.486-.794-.283-.166-.486-.474-.634-.941-.523-.062-.923-.29-1.212-.653.356-.424.818-.597 1.36-.48.726-.381 1.341-.141 1.858.726.221-.123.431-.03.634.24.049-.295.147-.59.32-.867.732.006 1.44-.246 2.11-.714Zm-.978 2.867c-.265.271-.437.671-.449 1.213l-.351-.172c-.954 1.076-1.237 1.913-.812 2.48-.129.652-.025 1.335.332 2.073-.461 1.699-.234 2.578.726 2.622.093.615-.197.916-.874.953.074.345.388.517.874.48-.141.45-.024.819.333 1.114.467.24.64.13.467-.314-.234-.326-.147-.615.253-.867.363.406.799.474 1.279.215-.03-.283-.129-.628-.332-1.028.246-.381.302-.775.172-1.193.253-.382.265-.837.074-1.354.69-.714.69-1.526 0-2.394v-.48c.665-.658.665-1.378 0-2.135a1.92 1.92 0 0 0-.074-.893c-.461-.24-.996-.338-1.618-.32Zm7.065-.726c-.222.111-.388.326-.493.64a4.66 4.66 0 0 0-1.034.493c-.129.664-.498 1.249-1.132 1.747-.055.523.154.886.646 1.126 0 .117.031.247.074.382-.56.757-.609 1.538-.141 2.4-.419.744-.253 1.378.48 1.926l-.48.314c.203.467.203 1.009 0 1.587 1.323.597 2.116.363 2.387-.713a1.69 1.69 0 0 0 .585-.874c-.265-.037-.419-.191-.499-.468.468-.221.542-.634.247-1.206.578-.658.738-1.495.48-2.554.159-.338.159-.72 0-1.12.215-.566.061-.978-.48-1.28v-.393c.707-.4.744-.794.172-1.194-.062-.443-.32-.702-.812-.813Zm-1.6 11.581c.098.191.196.191.32 0h-.32Zm1.04.167-.4.08c.227.197.369.16.4-.08ZM140.323 27.827c.707.037 1.489.295 2.332.744l.314-.098.24.425.738.178.246.086h.505c.283.616.769 1.108 1.471 1.465l.277 1.157.08.258c-.019.043.006.099.092.154v.246l.074.585.418.32a4.655 4.655 0 0 1-.086 1.907l.086.234c-.597.302-1.058.8-1.421 1.483-.339-.037-.665-.197-.985-.504-.369.037-.806.006-1.311-.08l-.584.258c-.388 0-.88-.086-1.477-.258h-.505c-.32 0-.677.036-1.089.172h-.972c-.388-.13-.825-.154-1.329-.086-.376.424-.616.954-.726 1.563.369.634.609 1.452.726 2.461.504.142.898.419 1.163.837l.664-.16c.733.985 1.619 1.145 2.634.48.228 0 .48.086.763.246.412-.43.954-.763 1.618-.984.099-.493.37-.93.844-1.311a4.54 4.54 0 0 0-.253-.819c.56.044 1.126-.08 1.754-.35l.228.086c.086.178.215.375.418.572-.129.425-.129.899 0 1.397a3.6 3.6 0 0 0-1.249 1.483.176.176 0 0 0-.154.08c-.068-.018-.117.03-.178.092l-.24.068a1.6 1.6 0 0 0-.333.91c-.209.24-.486.284-.843.18-.4.449-.978.713-1.717.818-.498.357-1.009.357-1.569 0-.56-.08-1.157-.019-1.729.147-.437-.375-.991-.627-1.674-.726-.406-.627-1.009-1.15-1.809-1.575-.098-.228-.283-.443-.578-.652a1.17 1.17 0 0 0-.653-.726c.031-.517-.104-1.016-.424-1.508-.012-.498-.179-1.034-.486-1.557a3.096 3.096 0 0 0-.173-1.65c.025-.233.142-.48.32-.725-.006-.462.087-.96.333-1.483l-.166-.511c.436-.45.756-1.015.91-1.705.216-.19.339-.436.406-.756l.265-.24.068-.259c.221-.178.504-.308.855-.4l.142-.154c.073-.283.178-.59.326-.917.646.08 1.292-.08 1.92-.492.461.037.972-.098 1.483-.406Zm1.003 2.554c-.413.055-.757.277-1.003.664-.745-.738-1.219-.689-1.397.16-.634-.074-1.022.222-1.163.911-.419.215-.776.566-1.059 1.052.37.886 1.059 1.028 2.056.425.344.258.769.314 1.224.154.609.233 1.299.233 2.074 0a.943.943 0 0 1 .418-.726c.505-.019.751.221.733.726l.504-.074c.474-1.379.111-2.092-1.064-2.135-.326-.72-.782-1.102-1.323-1.157ZM160.107 27.451c.394.179.862.204 1.36.08.203.167.486.284.843.339v.585c.289.012.542-.093.757-.339.289.29.677.566 1.182.837.086.283.252.603.504.93v.252l.16.086.591.584c-.32.493-.357.973-.08 1.496-.203.486-.092.929.345 1.341v.418c-.345.136-.585.351-.751.677.277.228.369.56.24 1.01.209.141.369.363.517.676a.859.859 0 0 0-.585.585l.505.24.08.677c-.216.32-.265.702-.16 1.163l-.265.505c.172.215.425.412.757.59-.025.813.474 1.299 1.52 1.514.037.615.258 1.194.658 1.748-.541.338-1.236.535-2.08.572-.172.13-.4.24-.689.357-.695-.154-1.47-.185-2.357-.074l-.572-.283c-.406.105-.874.13-1.446.105l-.332-.246c-.031-.4-.179-.77-.425-1.102l.092-.492c.542-.13.905-.499 1.096-1.09.394.111.787.038 1.181-.19.037-.166.037-.388 0-.659l.08-.492c.363-.332.456-.775.246-1.354.24-.018.443-.16.585-.406a1.95 1.95 0 0 0-.585-.51c.253-.376.222-.782-.098-1.17.111-.314.351-.554.683-.744-.209-.4-.32-.856-.32-1.354l-.265-.486.08-.517.259-.585-.166-.178-.425-.259c.086-.498-.061-1.003-.418-1.495a1.267 1.267 0 0 0-.086-.837l-.591.166c-.856-.48-1.631-.308-2.289.492-.69.191-1.336.585-1.926 1.188l.172.585c-.683-.179-1.022.104-1.009.843-.308.283-.548.708-.677 1.261-.394 0-.733.148-1.016.48.154.234.302.523.437.923-.03.265-.147.517-.357.751.271.677.308 1.446.093 2.29.172.215.258.48.258.824.185.892.788 1.458 1.766 1.667.462.628 1.114.8 1.945.517l.24.228c-.203.628-.622.782-1.268.517l-.246.258c-.172.61-.628.893-1.36.837-.597.474-1.415.536-2.437.166-.56.216-1.187.216-1.858 0-.794.259-1.249-.018-1.422-.843.093-.972.646-1.581 1.693-1.846l.166-.258c-.148-.542-.074-1.102.166-1.65-.037-.178-.037-.4 0-.682-.136-.154-.216-.382-.246-.665.32-.394.363-.8.172-1.274.406-.363.406-.75 0-1.175.406-.745.406-1.538 0-2.418.154-.462.209-.973.154-1.508l.104-1.022-.258-.24c.098-.258.123-.603.074-1.003l-.326-.24c-.566.074-1.077-.086-1.52-.517.511-.301 1.101-.381 1.772-.24.775-.424 1.428-.24 1.926.579-.295.086-.517.283-.671.585.277.024.628.024 1.016 0 .08.264.264.492.51.683.542-.05.997-.29 1.416-.683l.597-.167c0-.166.024-.332.086-.51.517-.179 1.052-.505 1.594-.991.11.178.307.357.597.504-.204-.344-.093-.652.307-.916Zm1.779 0c.387.179.855.204 1.36.08.196.167.48.284.836.339v.585c.29.012.524-.093.751-.339.296.29.683.566 1.176.837.092.283.258.603.516.93v.252l.154.086.591.584c-.32.493-.338.973-.08 1.496-.215.486-.092.929.332 1.341v.418a1.29 1.29 0 0 0-.726.677c.271.228.351.56.24 1.01.185.141.363.363.486.676-.264.087-.455.271-.578.585l.504.24.074.677c-.19.32-.252.702-.154 1.163l-.264.505c.172.215.412.412.751.59-.019.813.486 1.299 1.526 1.514.031.615.264 1.194.658 1.748-.547.338-1.237.535-2.086.572-.166.13-.388.24-.689.357-.683-.154-1.477-.185-2.363-.074l-.566-.283c2.363-.08 3.273-.13 2.72-.148h.203c.787-.073 1.267-.35 1.409-.824l.031-.653c-.985-.381-1.674-.984-2.031-1.852.929.376.812.271-.338-.227.233-.567.067-.653-.487-.24l.08-.493c.382-.332.462-.775.259-1.347.234-.025.424-.148.566-.4-.123-.185-.326-.351-.566-.511.24-.375.203-.757-.092-1.181.098-.29.326-.548.658-.751-.215-.37-.326-.837-.326-1.348l-.24-.486.08-.498.258-.591-.172-.191-.425-.246c.093-.51-.51-.923-1.772-1.237.092-.265.049-.535-.074-.837l-.59.166c-.856-.48-1.459-.787-1.779-.954-1.2.326-2.344.837-3.47 1.545l.166.59c-.69-.184-1.022.265-.991 1.336.363.658.24 1.028-.351 1.077.068.492-.043.91-.307 1.243.147.234.27.523.424.923-.018.265-.154.517-.351.75.277.678.302 1.447.08 2.29.197.215.277.48.277.825-.634.676-.055 1.236 1.76 1.667.474.628 1.102.8 1.945.517l.24.228c-.185.627-.616.781-1.262.517l-.264.258c-.154.61-.61.892-1.336.837-.609.474-1.403.535-2.449.166-.554.216.074.166 1.932-.166.45-.099.887-.517 1.385-1.25-.566-1.076-1.489-1.66-2.8-1.808l-.172-.708c-.419.03-.511-.24-.259-.788a3.162 3.162 0 0 1 0-.677c-.154-.147-.24-.393-.252-.695.314-.37.375-.788.16-1.237.406-.37.406-.77 0-1.169.406-.745.406-1.563 0-2.437.166-.468.234-.96.166-1.514l.092-.997-.258-.246c.117-.27.135-.603.092-1.015l-.344-.24c-.573.086-1.071-.062-1.514-.505.511-.301 1.101-.375 1.766-.24.794-.418.985-.203.591.683-.302.087-.062.253.677.48-.61.105-.726.13-.32.105.08.265.252.492.498.683.529-.05 1.003-.29 1.422-.683l.596-.166c0-.166 0-.332.08-.51.517-.18 1.059-.506 1.6-.992.111.179.32.357.591.505-.178-.326-.074-.634.339-.899Zm-4.702 7.89.499.227-.086.517c-.431-.098-.579-.357-.413-.745Zm4.874 6.196c.043.277.166.382.412.326-.043-.172-.197-.295-.412-.326ZM177.823 22.4c.382.073.794.233 1.225.492-.062.381-.031.793.086 1.224l-.086.64c.209.037.369.166.498.32-.246.523-.246 1.102 0 1.71-.074.216-.074.444 0 .72 1.052.358 1.68.358 1.858 0h.407c.504.567 1.409.727 2.695.5.074.264.277.547.566.811 0 .499-.123 1.004-.32 1.551a1.015 1.015 0 0 0-.652.148c-.794-.24-1.588-.13-2.363.326-.936-.006-1.711.412-2.357 1.31-.105.733.055 1.44.486 2.087-.172.468-.142.93.08 1.397-.265.984-.129 1.987.412 2.997v.64l-.252.418h.406c.179.468.554.794 1.145.96-.056.215-.019.468.08.732.277-.043.498-.221.646-.486 1.311-.172 1.987-.917 2.031-2.264l.246-.24c.713-.13 1.403.061 2.049.56.049.473 0 1.015-.172 1.612.055.154.092.375.092.664-.363.24-.517.634-.48 1.139-.382.178-.702.455-.991.867a4.04 4.04 0 0 0-1.384.739.392.392 0 0 0-.24.172c-.351-.074-.708-.012-1.059.154-.363-.055-.794-.03-1.317.086h-.221l-.246-.086a3.037 3.037 0 0 0-1.305-.4 3.254 3.254 0 0 0-.991-.664c-.197-.45-.572-.991-1.046-1.607v-.24c-.098-.221-.283-.443-.498-.658a2.358 2.358 0 0 0-.086-1.206v-.64a5.31 5.31 0 0 0 .252-.825v-.24l-.326-.258c.215-.474.215-1.01 0-1.606V34.91l.16-.339v-.486l-.259-.338.166-1.594.087-.252-.087-.16c-.744-.93-1.772-1.391-3.095-1.373-.154-.221-.375-.406-.646-.572l.24-1.212 1.157-.333c.166-.375.474-.553.978-.584.265-.253.659-.388 1.133-.388.178-.566.178-1.194 0-1.858a3.81 3.81 0 0 0 .24-1.139l.086-.154.086-.326a8.428 8.428 0 0 0-.172-1.07c.27-.136.633-.253 1.058-.333ZM200.586 27.556c.511.308 1.101.468 1.784.48l.173.412c1.526.074 2.356 1.028 2.449 2.85l-.333.313c.019.659-.313 1.225-.978 1.723-1.415.099-2.277-.461-2.609-1.723-.579.055-.991-.178-1.225-.726-1.2.185-1.883.61-2.049 1.298-.529.148-.707.468-.56.985-.467.203-.646.56-.572 1.058-.339.087-.499.314-.486.727-.443.523-.443 1.064 0 1.618-.049.215-.216.363-.499.498.056.24.234.456.499.634-.203 1.145.067 2.259.818 3.342.308-.031.677 0 1.12.098.123.203.296.4.499.634.252.652.252 1.348 0 2.11-.456.124-.96.124-1.551 0l-.406.247c-.88-.234-1.809-.172-2.788.24h-.892l-.585-.326c-2.08-.13-2.529-1.077-1.366-2.831.468.098.899 0 1.299-.332h.48c.049-.363.203-.708.498-1.071l.068-.566-.154-.246.086-1.305c.012-.154.012-.37 0-.634l-.178-.498c.135-.308.19-.695.178-1.12v-.339l-.086-.473-.16-.333c.031-.246.148-.486.32-.738 0-.339-.068-.708-.246-1.132v-.259L193.06 32c.074-.197.148-.492.16-.8-.394-.265-.911-.43-1.551-.486-.191-.376-.597-.548-1.224-.56l-.413-.234-.154-.985c.407-.812.973-1.083 1.631-.818.283-.474.671-.535 1.212-.234.517-.283.985-.178 1.397.234.222-.13.505-.265.819-.332.11.221.264.473.486.744.486-.067 1.071-.05 1.809.08.578-.067 1.182-.314 1.791-.726a3.658 3.658 0 0 0 1.563-.326ZM213.397 27.827c.72.037 1.465.295 2.32.744l.32-.098.246.425.739.178.252.086h.511c.265.616.751 1.108 1.465 1.465l.27 1.157.062.258c0 .043.031.099.098.154v.246l.074.585.412.32a4.264 4.264 0 0 1-.092 1.907l.092.234c-.584.302-1.052.8-1.409 1.483-.332-.037-.658-.197-.972-.504-.388.037-.818.006-1.335-.08l-.573.258c-.393 0-.904-.086-1.489-.258h-.498c-.314 0-.665.036-1.077.172H211.828c-.394-.13-.83-.154-1.329-.086-.375.424-.621.954-.757 1.563.376.634.646 1.452.757 2.461.499.142.886.419 1.157.837l.671-.16c.738.985 1.606 1.145 2.627.48.234 0 .474.086.751.246.443-.43.985-.763 1.637-.984.074-.493.345-.93.837-1.311a5.067 5.067 0 0 0-.259-.819c.554.044 1.133-.08 1.748-.35l.252.086c.05.178.197.375.406.572-.117.425-.117.899 0 1.397-.529.357-.947.868-1.255 1.483-.037 0-.086.012-.166.08-.049-.018-.099.03-.16.092l-.234.068c-.197.246-.301.535-.332.91-.222.24-.505.284-.837.18-.425.449-.991.713-1.723.818-.505.357-1.028.357-1.588 0-.547-.08-1.132-.019-1.704.147a3.265 3.265 0 0 0-1.662-.726c-.406-.627-1.034-1.15-1.834-1.575-.086-.228-.276-.443-.566-.652a1.15 1.15 0 0 0-.64-.726c.019-.517-.117-1.016-.443-1.508-.006-.498-.166-1.034-.48-1.557.099-.523.043-1.077-.166-1.65.031-.233.129-.48.32-.725-.006-.462.099-.96.326-1.483l-.154-.511c.443-.45.745-1.015.917-1.705.21-.19.333-.436.4-.756l.253-.24.08-.259c.221-.178.498-.308.83-.4l.173-.154c.055-.283.184-.59.326-.917.64.08 1.28-.08 1.889-.492.486.037.972-.098 1.501-.406Zm.997 2.554c-.43.055-.75.277-.99.664-.751-.738-1.225-.689-1.403.16-.647-.074-1.028.222-1.157.911-.437.215-.8.566-1.09 1.052.388.886 1.09 1.028 2.08.425.339.258.757.314 1.231.154.591.233 1.274.233 2.062 0a.912.912 0 0 1 .424-.726c.505-.019.739.221.732.726l.493-.074c.48-1.379.129-2.092-1.059-2.135-.332-.72-.769-1.102-1.323-1.157ZM231.415 27.827c.714.037 1.471.295 2.326.744l.326-.098.24.425.739.178.24.086h.517c.264.616.757 1.108 1.47 1.465l.271 1.157.062.258c-.013.043.03.099.086.154v.246l.08.585.412.32c.111.627.074 1.261-.08 1.907l.08.234c-.597.302-1.058.8-1.409 1.483-.339-.037-.671-.197-.979-.504-.375.037-.824.006-1.341-.08l-.566.258c-.394 0-.88-.086-1.502-.258h-.473c-.314 0-.677.036-1.09.172h-.972c-.394-.13-.825-.154-1.348-.086-.363.424-.609.954-.726 1.563.37.634.61 1.452.726 2.461.523.142.887.419 1.17.837l.658-.16c.738.985 1.606 1.145 2.621.48.253 0 .511.086.776.246.424-.43.972-.763 1.631-.984.067-.493.35-.93.836-1.311a4.087 4.087 0 0 0-.258-.819c.56.044 1.138-.08 1.748-.35l.246.086c.061.178.209.375.412.572-.123.425-.123.899 0 1.397-.548.357-.948.868-1.243 1.483-.062 0-.123.012-.166.08-.049-.018-.111.03-.166.092l-.24.068c-.185.246-.296.535-.333.91-.209.24-.492.284-.836.18-.407.449-.991.713-1.723.818-.511.357-1.034.357-1.582 0-.56-.08-1.138-.019-1.729.147-.431-.375-.991-.627-1.662-.726-.412-.627-1.015-1.15-1.809-1.575-.098-.228-.301-.443-.566-.652-.123-.32-.332-.585-.658-.726a2.418 2.418 0 0 0-.437-1.508c-.013-.498-.185-1.034-.48-1.557.098-.523.043-1.077-.172-1.65.036-.233.135-.48.332-.725-.019-.462.086-.96.314-1.483l-.173-.511c.45-.45.763-1.015.936-1.705.209-.19.332-.436.4-.756l.258-.24.074-.259c.215-.178.492-.308.831-.4l.172-.154c.055-.283.16-.59.32-.917.64.08 1.274-.08 1.883-.492.517.037 1.003-.098 1.526-.406Zm.985 2.554c-.4.055-.745.277-.979.664-.75-.738-1.212-.689-1.403.16-.634-.074-1.015.222-1.157.911-.43.215-.793.566-1.064 1.052.381.886 1.07 1.028 2.074.425.338.258.744.314 1.224.154.597.233 1.292.233 2.062 0a.965.965 0 0 1 .424-.726c.505-.019.751.221.739.726l.498-.074c.468-1.379.129-2.092-1.065-2.135-.356-.72-.787-1.102-1.353-1.157ZM62.818 21.009h-.098.184-.086.166-.08.172-.086.087l.412.338c.265 0 .492-.08.695-.246.566.098 1.182.055 1.859-.092h.264c.32.652.856 1.101 1.625 1.341a1.21 1.21 0 0 1-.185 1.003c.203.492.203 1.022 0 1.588.086.19.172.4.185.658-.191.197-.302.419-.339.69.105.129.191.307.24.498l-.314.923.228.16c.043.258.03.535-.067.843.252.418.32.88.252 1.421l.16.837c-.265.788-.296 1.668-.074 2.597a1.523 1.523 0 0 1-.277.75v.333c.074.388.043.775-.068 1.182l.253.332v1.581l.092.173v.744l.074.271a.677.677 0 0 0-.074.572c-.019.308.105.591.326.843l-.074.265h-.092.092-.092c.074.092.19.092.344 0 .739.837.868 1.028 2.05.585.474.209 1.083.338 1.778.406l.265.178c.283.099.486.332.584.659-.449-.111-.732.061-.843.504 1.49.591.948 1.01-1.618 1.237H69.538l-.259-.068-.689.167-.849.086c-.32-.185-.701-.314-1.17-.413-.442.13-.96.173-1.531.167l-.265.166-.265.086c-.781-.394-1.753-.56-2.892-.486-.308-.086-.11-.111-.572-.086l-.363-.099h-.499a2.553 2.553 0 0 0-.75-.67c.123-.862.609-1.582 1.433-2.191.277.012.64.08 1.022.178.744-.197 1.027-.221 2.03-.08h.364l.227-.098c.025-.203-.074-.425-.227-.653a7.86 7.86 0 0 0 .843-.757c-.117-.35-.136-.769-.08-1.261l.08-.984.074-1.016V35.6l-.074-.35c.08-.309.141-.709.166-1.176l-.166-.339.252-.258c-.123-.474-.123-1.022 0-1.668-.099-.172-.154-.387-.178-.652l.178-.683c-.117-.339-.332-.64-.683-.917l.77-.665a6.81 6.81 0 0 0-.265-.769l.35-.492c-.172-.695-.24-1.539-.172-2.523-.061-.203-.123-.456-.252-.757-.21-.123-.456-.142-.782-.074-.387-.363-.707-.27-1.003.246-.381-.812-.381-1.058-1.304-.744-.425-.283-.13-.425-.776-.425l-.43-.492c.098-.222.123-.48.08-.75.221-.26.449-.61.615-1.01.4.061.91.061 1.532 0l-.498.092c.123.222.32.35.596.406l.333-.406-.757-.184h.086ZM32.763 26.11c.302.104.597.314.886.621.222-.018.486.025.813.099.073.203.184.375.32.541 1.495-.726 2.449-.067 2.923 1.976l.646.535a8.88 8.88 0 0 1-.08.726l.314.24c-.062.443-.253.862-.566 1.28l-.24.634-.068.264c-.068.031-.117.08-.16.179-.573.148-1.274.215-2.11.178-.284-1.175-.69-1.883-1.226-2.16l.093-.523c.48-.307.708-.781.726-1.452-.615-.11-1.335-.11-2.178 0h-.819l-.406.283h-.652c-.29.123-.554.332-.794.61-1.194.836-1.822 2.092-1.877 3.765-.474.819-.51 1.588-.172 2.339-.425 1.514.024 2.695 1.286 3.501.221.597.67.8 1.304.628.511 1.101 1.619 1.421 3.317.978.068-.313.246-.646.499-.978.64.037 1.089-.326 1.298-1.077.523-.012.935-.32 1.212-.905h.493l.16.468c.486.19.892.548 1.206 1.077-.24.203-.462.492-.64.886l-.16.099c-.185.197-.376.492-.572.898-.062.006-.105.068-.167.178l-.498.351-.474.714-.154.27-1.79.727h-.259l-.308-.166a.906.906 0 0 1-.732.338c-.13-.178-.326-.289-.566-.338a5.984 5.984 0 0 1-.412.701h-.4c-.388-.338-.88-.48-1.465-.449l-.554-.628c-.381-.018-.837-.166-1.378-.363a4.831 4.831 0 0 0-.419-.707l-.073-.179a4.542 4.542 0 0 0-1.379-1.255v-.892c-1.132-.997-1.44-2.573-.88-4.757l-.344-.357c.043-.32.147-.696.344-1.077-.117-.572-.055-1.157.228-1.784.074-.339.104-.727.074-1.182.412-.425.812-1.034 1.224-1.785.296-.086.591-.227.893-.455l.332-1.23c.621.128 1.163-.075 1.612-.647.499.179.862 0 1.065-.535h.48c.387.074.794.006 1.224-.203Z" fill="#000"/></svg>