<svg width="206" height="43" fill="none" xmlns="http://www.w3.org/2000/svg"><path d="M1 1v41h204.098V1H1Zm2.939 38.12V3.864H202.16v35.258H3.939Z" fill="#000" stroke="#000" stroke-width=".15" stroke-miterlimit="10"/><path d="M166.382 29.578h-1.378v2.657h1.378v-2.657ZM166.382 20.174h-1.378v2.657h1.378v-2.657ZM166.382 34.281h-1.378v2.661h1.378v-2.66ZM166.382 24.87h-1.378v2.668h1.378V24.87ZM166.382 6.064h-1.378v2.657h1.378V6.064ZM166.382 10.771h-1.378v2.657h1.378v-2.657ZM166.382 15.46h-1.378v2.666h1.378V15.46ZM173.182 37.345a.938.938 0 0 1-.326-1.287s.028-.107.099-.294v.048c.326-.54 1.049-2.109 1.446-4.293h-.83c-1.363 0-2.514-1.156-2.514-2.538 0-1.402 1.155-2.546 2.514-2.546 1.187 0 2.228.795 2.442 1.764.04.103.143.488.187.595l-.044-.035c.104.54.151 1.12.151 1.608-.047 3.304-1.473 6.025-1.803 6.589l.044-.028c-.25.397-.584.568-.906.568-.182 0-.329-.08-.5-.147h.04v-.004ZM30.912 18.506h.235c.008.159.083.278.218.381.183 0 .381-.08.56-.21.123.095.266.202.445.282.087-.02.155-.072.218-.175l.846.29h.17l.112.043h.17c.259.346.588.644 1.002.894.083.425.285.818.62 1.164v.222c-.382.608-.354 1.144.106 1.608v.346c-.341.12-.42.465-.238 1.056l.298.108c-.123.325-.095.659.047 1-.099.266-.127.556-.11.89l-.064.12v.158c.063.139.167.25.341.326l.223.512c-.195-.095-.306-.048-.334.17a.92.92 0 0 1 .385.116h.171l.234.051c.298-.623.799-.846 1.494-.615v.334l-.382.174c-.06.282-.06.62 0 .997a1.289 1.289 0 0 0-.448.39 2.02 2.02 0 0 1-.62-.227c-.131.17-.341.29-.607.337-.227-.262-.525-.33-.894-.166-.314-.334-.723-.517-1.223-.544-.334.254-.743.377-1.24.377a1.028 1.028 0 0 0-.329.44l-.393-.047h-.179l-.159.218c-.977.223-1.973.167-3.002-.174l-.346-.505-.055-.099c-.6-.087-.917-.473-.953-1.172-.453-.516-.548-1.127-.274-1.826l-.104-.556c.267-.187.465-.477.608-.83.19-.195.453-.346.783-.453.349-.512.984-.779 1.906-.779a.349.349 0 0 0 .163.167c.178-.182.369-.369.607-.556.111.171.258.29.453.39.318-.421.854-.604 1.632-.56a.932.932 0 0 0 .052-.556c.19-.068.357-.199.492-.39-.167-.206-.182-.46-.051-.778-.398-.35-.902-.564-1.498-.663-.361-.41-.706-.37-1.012.111-.493-.44-.806-.457-.957-.056-.469.108-.525.445-.151.997-.31.258-.5.616-.632 1.049l-.278.182a2.067 2.067 0 0 0-.822.1 2.323 2.323 0 0 0-.453-.16.951.951 0 0 1-.222-.56c-.607-.527-.58-.984.06-1.393l-.123-.5c.313-.187.595-.465.845-.835.219-.051.461-.158.72-.333.17.02.384.052.623.103.242-.051.564-.1.949-.103.1-.056.23-.147.365-.282Zm2.459 5.786a1.595 1.595 0 0 0-.835.064c-.218-.092-.456-.108-.73-.064-.183.127-.433.21-.711.219l-.183.278c-.429-.35-.75-.322-.941.06-.425-.025-.675.17-.739.607-.258.067-.389.238-.38.504l.102.17c-.385.2-.385.426 0 .668-.182.552.048.814.68.77.194.322.5.457.893.386.25.115.44.06.568-.155.334.028.64-.068.95-.286l.491.055c.02-.15-.007-.293-.047-.444.286-.16.54-.421.774-.783.175-.035.346-.103.513-.21l-.128-.334c.235-.44.147-.782-.218-1.008.199-.18.215-.378.052-.608l-.111.111Zm-3.4-3.332c.199.08.183.14-.064.175l.064-.175ZM52.846 18.832c.366.33.838.532 1.394.608.366.29.739.254 1.096-.1.517.191.878.012 1.085-.512.297.08.6.08.933 0 .19.413.54.75 1.032.977.024.37.123.75.314 1.136-.111.21-.064.417.103.615a1.31 1.31 0 0 0 .052 1.029c-.127.274-.095.576.1.921l-.152.155c-.02.234.056.433.255.632-.144.456-.104.96.099 1.481-.088.238-.115.512-.1.826l.263.155c-.12.115-.183.278-.215.465.739.246 1.108.798 1.088 1.656-.516.615-1.171.802-1.97.548-.659.194-1.278.047-1.85-.461l-.27.274c-.318-.02-.588.1-.834.35-.294-.084-.624-.064-.97.055-.432-.12-.94-.159-1.512-.107l-.103-.052-.362.052c-.115-.08-.27-.171-.449-.25a2.784 2.784 0 0 0-1.104.357c-.369-.12-.794-.155-1.29-.107-.21-.21-.505-.378-.878-.512l-.052-.108-.154-.095c.127-.33.38-.584.77-.73.052-.148.135-.295.266-.461.028-.147.004-.33-.056-.513.239-.552.278-1.128.151-1.751a2.059 2.059 0 0 0 0-.882.99.99 0 0 1 .262-.5v-.223l-.099-.345-.063-.413-.04-.111c0-.024-.02-.068-.06-.1l.06-.099c.234-.46.262-.993.103-1.612a.757.757 0 0 0 .302-.512c-.19-.108-.33-.306-.405-.608a1.12 1.12 0 0 1-.786-.421c.234-.274.524-.385.89-.31.452-.246.861-.091 1.187.469.146-.08.285-.02.405.155.032-.19.099-.382.214-.56.48.004.925-.16 1.35-.46Zm-.62 1.85c-.174.176-.277.434-.309.783l-.206-.111c-.616.695-.803 1.235-.52 1.6-.088.421-.02.862.198 1.339-.286 1.096-.14 1.664.488 1.692.04.397-.159.591-.587.615.063.222.25.334.587.31-.091.29-.027.528.187.719.318.154.425.083.318-.203-.16-.21-.1-.397.159-.56.226.262.504.306.822.14-.008-.184-.092-.406-.207-.664a.98.98 0 0 0 .12-.77c.146-.247.17-.54.031-.874.457-.46.457-.985 0-1.545v-.31c.433-.425.433-.89 0-1.378a1.497 1.497 0 0 0-.032-.576c-.31-.155-.655-.218-1.048-.206Zm4.556-.468c-.14.072-.25.21-.314.413-.194.064-.42.163-.667.318-.087.429-.33.806-.73 1.128-.048.337.09.572.412.726 0 .076.024.16.052.247-.373.488-.397.992-.1 1.549-.273.48-.162.89.31 1.242l-.31.203c.124.302.124.651 0 1.025.847.385 1.359.234 1.545-.461.18-.139.298-.326.374-.564-.167-.024-.262-.123-.314-.302.306-.143.354-.409.155-.778.373-.425.48-.965.306-1.648.099-.219.099-.465 0-.723.147-.365.035-.631-.306-.826v-.254c.453-.258.48-.512.103-.77-.028-.287-.198-.453-.516-.525Zm-1.033 7.474c.06.123.123.123.207 0h-.207Zm.672.107-.263.052c.147.127.239.103.263-.052ZM65.72 18.883c.168.032.335.1.537.202.46-.174.973-.218 1.54-.163l.204.322c.424-.067.766.096 1.024.485.528.091.866.397 1 .945.18.012.354.08.545.21-.123.584.02 1.08.437 1.494l.103.794v.163l.056.099v.179l.154.051c-.178.397-.154.798.044 1.211-.214.334-.322.735-.31 1.212-.139.198-.23.425-.266.69-.02.187-.071.378-.17.588-.024.056-.032.132-.052.207-.254.338-.647.691-1.172 1.064a1.95 1.95 0 0 1-.373.31l-.167.219c-.35.023-.71.174-1.06.476a.616.616 0 0 1-.421-.159c-.413-.075-.846-.047-1.334.108-.155-.056-.298-.175-.43-.31-.154.083-.349.13-.583.15l-.163-.36c-.465-.068-.814-.33-1.068-.803l-.58-.373c-.004-.278-.123-.556-.33-.846l-.051-.636c-.401-.575-.509-1.262-.322-2.065l-.262-.425c.226-.496.346-1.104.373-1.806l.378-.16c0-.353.158-.643.472-.841.052-.346.195-.735.425-1.164.254-.056.48-.195.703-.44.508.031.886-.183 1.12-.628Zm.58 1.533c-.146.099-.277.242-.365.417-.87.186-1.191.472-.965.858-.536.095-.802.48-.802 1.171l-.425-.111h-.163a.775.775 0 0 0 .322.365l.207.755c-.1.198-.342.377-.68.512.056.151.167.27.314.377.064.258.203.505.425.743l-.06.473c.167.155.386.282.656.385.012.294.083.603.206.945.151.095.338.167.592.203l.052.123a.687.687 0 0 0-.052.317.745.745 0 0 0 .636.052l.313.055c.528.143.914-.02 1.128-.484.568.036.87-.238.902-.83.544-.123.635-.393.262-.806.687-.37.87-.913.532-1.644.075-.147.119-.326.119-.525a2.724 2.724 0 0 1-.488-.099l.258-.437a1.246 1.246 0 0 0-.258-.429c.031-.27-.06-.516-.267-.734-.015-.397-.206-.703-.58-.898-.29-.472-.734-.655-1.346-.536-.091-.143-.262-.206-.472-.218ZM77.567 18.832c.358.33.822.532 1.39.608.366.29.739.254 1.089-.1.512.191.877.012 1.084-.512.298.08.607.08.937 0 .195.413.528.75 1.029.977.027.37.123.75.31 1.136-.108.21-.072.417.099.615-.12.338-.108.683.067 1.029-.143.274-.103.576.084.921l-.155.155c-.02.234.071.433.258.632-.143.456-.103.96.103 1.481a2.08 2.08 0 0 0-.103.826l.262.155a.714.714 0 0 0-.199.465c.735.246 1.104.798 1.084 1.656-.516.615-1.171.802-1.965.548-.668.194-1.283.047-1.863-.461l-.262.274c-.314-.02-.592.1-.822.35-.306-.084-.624-.064-.985.055-.437-.12-.933-.159-1.501-.107l-.1-.052-.365.052a2.998 2.998 0 0 0-.473-.25c-.349.035-.706.143-1.088.357-.361-.12-.806-.155-1.282-.107a2.581 2.581 0 0 0-.882-.512l-.052-.108-.163-.095c.128-.33.386-.584.771-.73a1.94 1.94 0 0 1 .266-.461c.028-.147.008-.33-.048-.513.23-.552.282-1.128.16-1.751a2.345 2.345 0 0 0 0-.882c.027-.163.103-.337.246-.5v-.223l-.104-.345-.047-.413-.052-.111a.162.162 0 0 0-.048-.1l.048-.099c.238-.46.27-.993.095-1.612.163-.111.262-.278.314-.512-.183-.108-.314-.306-.41-.608a1.128 1.128 0 0 1-.781-.421c.23-.274.528-.385.877-.31.469-.246.866-.091 1.2.469.143-.08.278-.02.409.155.031-.19.095-.382.206-.56.473.004.93-.16 1.362-.46Zm-.631 1.85c-.17.176-.282.434-.29.783l-.226-.111c-.616.695-.799 1.235-.525 1.6-.083.421-.016.862.215 1.339-.298 1.096-.151 1.664.469 1.692.06.397-.128.591-.564.615.047.222.25.334.564.31-.092.29-.016.528.214.719.302.154.413.083.302-.203-.151-.21-.096-.397.163-.56.234.262.516.306.826.14a1.95 1.95 0 0 0-.215-.664.876.876 0 0 0 .111-.77c.163-.247.171-.54.048-.874.445-.46.445-.985 0-1.545v-.31c.429-.425.429-.89 0-1.378a1.253 1.253 0 0 0-.048-.576c-.297-.155-.643-.218-1.044-.206Zm4.56-.468c-.144.072-.251.21-.319.413a3.012 3.012 0 0 0-.667.318c-.083.429-.322.806-.73 1.128-.036.337.099.572.416.726 0 .076.02.16.048.247-.361.488-.393.992-.091 1.549-.27.48-.163.89.31 1.242l-.31.203c.13.302.13.651 0 1.025.854.385 1.366.234 1.54-.461a1.09 1.09 0 0 0 .378-.564c-.17-.024-.27-.123-.322-.302.302-.143.35-.409.16-.778.372-.425.476-.965.309-1.648.103-.219.103-.465 0-.723.139-.365.04-.631-.31-.826v-.254c.457-.258.48-.512.111-.77-.04-.287-.206-.453-.524-.525Zm-1.033 7.474c.063.123.127.123.206 0h-.206Zm.67.107-.257.052c.146.127.238.103.258-.052ZM91.078 18.959c.457.024.962.19 1.506.48l.202-.063.155.274.477.115.158.056h.326c.183.397.496.715.95.945l.178.747.052.166c-.012.028.004.064.06.1v.159l.047.377.27.206c.067.405.047.814-.056 1.231l.056.151c-.385.195-.683.517-.918.957-.218-.023-.428-.127-.635-.325-.238.024-.52.004-.846-.052l-.377.167c-.25 0-.568-.056-.953-.167h-.326c-.206 0-.437.024-.703.111h-.627c-.25-.083-.532-.099-.858-.055a2.047 2.047 0 0 0-.469 1.008c.239.41.393.938.469 1.589.326.091.58.27.75.54l.43-.103c.472.635 1.044.738 1.7.31.146 0 .309.055.492.158a2.525 2.525 0 0 1 1.044-.635c.063-.318.238-.6.544-.846-.032-.15-.08-.33-.163-.528.362.028.727-.052 1.132-.226l.147.055c.056.115.139.242.27.37-.083.273-.083.58 0 .901-.341.23-.623.56-.806.957a.113.113 0 0 0-.1.052c-.043-.012-.075.02-.115.06l-.154.043a1.03 1.03 0 0 0-.215.588c-.135.155-.314.182-.544.115-.258.29-.631.46-1.108.528-.322.23-.651.23-1.013 0a2.683 2.683 0 0 0-1.116.095 2.072 2.072 0 0 0-1.08-.468c-.262-.405-.651-.743-1.167-1.017-.064-.147-.183-.286-.374-.42a.756.756 0 0 0-.42-.47 1.572 1.572 0 0 0-.275-.972 2.111 2.111 0 0 0-.313-1.005 2 2 0 0 0-.112-1.064c.016-.151.092-.31.207-.47-.004-.297.055-.619.214-.956l-.107-.33c.282-.29.489-.655.588-1.1a.852.852 0 0 0 .262-.488l.17-.155.044-.167c.143-.115.326-.199.552-.258l.092-.1c.047-.182.115-.38.21-.591.417.051.834-.052 1.24-.318.297.024.627-.063.956-.262Zm.648 1.648a.889.889 0 0 0-.648.429c-.48-.477-.786-.445-.901.103-.41-.047-.66.143-.75.588-.27.139-.501.365-.684.68.239.571.683.662 1.327.273.222.167.496.203.79.1.393.15.838.15 1.338 0 .012-.183.1-.35.27-.47.326-.011.485.144.473.47l.326-.048c.305-.89.071-1.35-.687-1.378-.21-.465-.505-.711-.854-.747ZM103.846 18.717c.254.115.556.13.877.051.131.108.314.183.544.219v.377c.187.008.35-.06.489-.218.187.186.437.365.762.54.056.183.163.389.326.6v.162l.103.056.382.377c-.207.318-.231.628-.052.965-.131.314-.06.6.222.866v.27a.873.873 0 0 0-.484.437c.179.147.238.361.155.651.135.091.238.235.333.437a.555.555 0 0 0-.377.377l.326.155.051.437c-.139.207-.17.453-.103.75l-.171.326c.112.14.274.266.489.381-.016.525.306.838.981.977.024.398.166.77.425 1.128-.35.219-.799.346-1.343.37a1.997 1.997 0 0 1-.444.23 4.44 4.44 0 0 0-1.521-.048l-.37-.182c-.262.067-.564.083-.933.067l-.215-.159a1.35 1.35 0 0 0-.274-.71l.06-.318c.349-.084.584-.322.707-.703.254.071.508.024.762-.123.024-.108.024-.25 0-.425l.052-.318c.234-.214.294-.5.159-.874.155-.012.286-.103.377-.262a1.254 1.254 0 0 0-.377-.33c.163-.242.143-.504-.064-.754.072-.202.227-.357.441-.48a1.866 1.866 0 0 1-.206-.874l-.171-.314.052-.334.166-.377-.107-.115-.274-.167c.056-.321-.04-.647-.27-.965a.809.809 0 0 0-.056-.54l-.381.107c-.552-.31-1.052-.198-1.477.318-.445.123-.862.377-1.243.767l.111.377c-.441-.115-.659.067-.651.544-.199.183-.354.457-.437.814a.82.82 0 0 0-.655.31c.099.15.194.337.282.596a.875.875 0 0 1-.231.484c.175.437.199.933.06 1.477.111.14.167.31.167.533.119.575.508.94 1.139 1.076.298.405.719.516 1.255.333l.155.147c-.131.405-.401.505-.818.334l-.159.167c-.111.393-.405.575-.877.54-.386.305-.914.345-1.573.107-.361.139-.767.139-1.2 0-.512.167-.806-.012-.917-.544.06-.628.417-1.02 1.092-1.192l.108-.166c-.096-.35-.048-.711.107-1.065a1.346 1.346 0 0 1 0-.44c-.088-.1-.14-.247-.16-.43.207-.254.235-.516.112-.821.262-.235.262-.485 0-.759.262-.48.262-.993 0-1.56.1-.299.135-.628.1-.974l.067-.659-.167-.155c.064-.167.08-.389.048-.647l-.21-.155a1.134 1.134 0 0 1-.982-.334c.33-.194.711-.246 1.144-.155.5-.273.921-.154 1.243.374a.698.698 0 0 0-.433.377c.179.016.405.016.656 0 .051.17.17.318.329.44.35-.03.644-.186.914-.44l.385-.107c0-.107.016-.215.055-.33.334-.115.679-.325 1.029-.64.071.116.199.231.385.326-.131-.222-.059-.42.199-.591Zm1.147 0c.251.115.552.13.878.051.127.108.31.183.54.219v.377c.187.008.338-.06.485-.218.19.186.441.365.758.54.06.183.167.389.334.6v.162l.099.056.381.377c-.206.318-.218.628-.051.965-.139.314-.06.6.214.866v.27a.83.83 0 0 0-.468.437c.174.147.226.361.154.651.12.091.235.235.314.437-.171.056-.294.175-.373.377l.326.155.047.437c-.123.207-.163.453-.099.75l-.171.326c.111.14.266.266.485.381-.012.525.313.838.985.977.019.398.17.77.424 1.128-.353.219-.798.346-1.346.37a1.75 1.75 0 0 1-.445.23c-.44-.1-.953-.12-1.525-.048l-.365-.182c1.525-.052 2.113-.084 1.755-.096h.131c.509-.047.819-.226.91-.532l.02-.42c-.636-.247-1.08-.636-1.311-1.196.6.242.524.174-.218-.147.151-.366.043-.421-.314-.155l.052-.318c.246-.214.297-.5.166-.87.151-.015.274-.095.366-.258a1.311 1.311 0 0 0-.366-.33c.155-.241.131-.488-.059-.762.063-.186.21-.353.425-.484a1.73 1.73 0 0 1-.211-.87l-.155-.314.052-.321.167-.382-.111-.123-.274-.158c.059-.33-.33-.596-1.144-.799.059-.17.032-.345-.048-.54l-.381.107c-.552-.31-.941-.508-1.148-.615-.774.21-1.513.54-2.24.997l.108.38c-.445-.118-.66.172-.64.863.235.425.155.663-.226.695.044.317-.028.587-.199.802.096.15.175.337.274.595-.012.171-.099.334-.226.485.179.437.195.933.052 1.477.127.14.178.31.178.532-.409.437-.035.799 1.136 1.077.306.405.711.516 1.255.333l.155.147c-.119.405-.397.505-.814.334l-.171.167c-.099.393-.393.576-.862.54-.393.306-.905.345-1.58.107-.358.139.047.107 1.247-.107.29-.064.572-.334.893-.806-.365-.695-.961-1.073-1.807-1.168l-.111-.457c-.27.02-.33-.155-.167-.508a1.976 1.976 0 0 1 0-.437c-.099-.095-.155-.254-.163-.449a.69.69 0 0 0 .104-.798c.262-.238.262-.496 0-.754.262-.48.262-1.01 0-1.573.107-.302.151-.62.107-.977l.06-.643-.167-.16c.075-.174.087-.388.059-.654l-.222-.155a1.075 1.075 0 0 1-.977-.326c.33-.195.711-.242 1.14-.155.512-.27.635-.13.381.44-.195.056-.04.164.437.31-.393.068-.469.084-.207.068.052.171.163.318.322.441.342-.032.647-.187.917-.44l.386-.108c0-.107 0-.215.051-.33.334-.115.683-.325 1.033-.639.071.115.206.23.381.326-.115-.21-.048-.41.218-.58Zm-3.034 5.091.322.147-.056.334c-.278-.064-.373-.23-.266-.481Zm3.146 4c.027.178.107.245.266.21-.028-.111-.127-.191-.266-.21ZM115.279 15.457c.247.048.513.15.791.318-.04.246-.02.512.055.79l-.055.413a.547.547 0 0 1 .321.207c-.159.337-.159.71 0 1.104a.78.78 0 0 0 0 .464c.679.23 1.084.23 1.2 0h.262c.325.366.909.469 1.739.322.048.17.179.353.366.524 0 .322-.08.648-.207 1a.656.656 0 0 0-.421.096c-.512-.155-1.025-.083-1.525.21-.604-.003-1.104.267-1.521.847-.067.472.036.929.314 1.346-.111.302-.092.6.051.901-.17.636-.083 1.283.267 1.934v.413l-.163.27h.262c.115.302.357.513.738.62-.035.139-.011.302.052.473a.582.582 0 0 0 .417-.314c.846-.111 1.283-.592 1.311-1.462l.158-.154c.461-.084.906.04 1.323.36.032.307 0 .656-.111 1.041.035.1.059.243.059.43-.234.154-.333.408-.31.734a1.605 1.605 0 0 0-.639.56c-.314.091-.608.25-.893.477a.253.253 0 0 0-.155.11 1.064 1.064 0 0 0-.683.1c-.235-.036-.513-.02-.85.056h-.143l-.159-.056a1.956 1.956 0 0 0-.842-.258 2.103 2.103 0 0 0-.639-.43c-.127-.289-.37-.638-.675-1.036v-.155a1.531 1.531 0 0 0-.322-.424 1.51 1.51 0 0 0-.056-.779v-.413c.068-.159.115-.333.163-.532v-.155l-.21-.167c.139-.305.139-.65 0-1.036v-.675l.103-.219V23l-.167-.219.107-1.028.056-.163-.056-.104c-.48-.6-1.143-.897-1.997-.885a1.375 1.375 0 0 0-.417-.37l.155-.782.746-.214c.107-.243.306-.358.632-.378.17-.162.425-.25.73-.25.116-.365.116-.77 0-1.199.084-.21.135-.453.155-.735l.056-.099.055-.21a5.18 5.18 0 0 0-.111-.691c.175-.088.409-.163.683-.215ZM129.969 18.785c.329.199.711.302 1.151.31l.112.266c.985.048 1.521.663 1.58 1.839l-.214.202c.012.425-.203.79-.632 1.112-.913.064-1.469-.298-1.684-1.112-.373.036-.639-.115-.79-.468-.774.119-1.215.393-1.322.838-.342.095-.457.301-.362.635-.301.131-.417.361-.369.683-.218.056-.322.203-.314.469-.286.337-.286.687 0 1.044-.032.14-.139.234-.321.322.035.155.15.294.321.409-.131.739.044 1.457.528 2.156.199-.02.437 0 .723.064.08.13.191.258.322.409.163.42.163.87 0 1.362-.294.08-.62.08-1.001 0l-.262.159c-.568-.151-1.168-.111-1.799.155H125.06l-.377-.21c-1.342-.084-1.632-.696-.882-1.827.302.063.58 0 .838-.215h.31c.032-.234.131-.457.322-.691l.043-.365-.099-.16.056-.841c.008-.1.008-.238 0-.41l-.116-.32c.088-.2.124-.45.116-.724v-.218l-.056-.306-.103-.214c.02-.16.095-.314.206-.477 0-.218-.043-.457-.159-.73v-.167l-.047-.111c.047-.128.095-.318.103-.517-.254-.17-.588-.278-1.001-.314-.123-.242-.385-.353-.79-.36l-.266-.152-.099-.635c.262-.524.627-.7 1.052-.529.183-.305.433-.345.782-.15.334-.183.636-.115.902.15.143-.083.326-.17.528-.214.072.143.171.306.314.48.314-.043.691-.031 1.167.052.374-.043.763-.202 1.156-.468.338.008.671-.064 1.009-.21ZM138.238 18.959c.464.024.945.19 1.497.48l.206-.063.159.274.477.115.163.056h.329c.171.397.485.715.945.945l.175.747.04.166c0 .028.02.064.063.1v.159l.048.377.266.206a2.74 2.74 0 0 1-.06 1.231l.06.151c-.377.195-.679.517-.909.957-.215-.023-.425-.127-.628-.325-.25.024-.528.004-.862-.052l-.369.167c-.254 0-.584-.056-.961-.167h-.322c-.202 0-.429.024-.695.111h-.635a1.897 1.897 0 0 0-.858-.055 2.221 2.221 0 0 0-.488 1.008c.242.41.417.938.488 1.589.322.091.572.27.747.54l.433-.103c.476.635 1.036.738 1.695.31.151 0 .306.055.485.158a2.765 2.765 0 0 1 1.056-.635c.048-.318.223-.6.54-.846a3.23 3.23 0 0 0-.166-.528c.357.028.73-.052 1.127-.226l.163.055c.032.115.127.242.262.37-.075.273-.075.58 0 .901-.341.23-.611.56-.81.957-.024 0-.055.008-.107.052-.032-.012-.064.02-.103.06l-.151.043a1.033 1.033 0 0 0-.215.588c-.143.155-.325.182-.54.115-.274.29-.639.46-1.112.528-.325.23-.663.23-1.024 0a2.618 2.618 0 0 0-1.1.095 2.106 2.106 0 0 0-1.073-.468c-.262-.405-.667-.743-1.183-1.017-.056-.147-.179-.286-.365-.42a.746.746 0 0 0-.413-.47 1.622 1.622 0 0 0-.286-.972 2.027 2.027 0 0 0-.31-1.005 2.002 2.002 0 0 0-.107-1.064.962.962 0 0 1 .206-.47c-.004-.297.064-.619.211-.956l-.1-.33c.286-.29.481-.655.592-1.1a.873.873 0 0 0 .258-.488l.163-.155.052-.167c.143-.115.321-.199.536-.258l.111-.1c.036-.182.119-.38.21-.591.413.051.826-.052 1.22-.318.313.024.627-.063.969-.262Zm.643 1.648c-.278.036-.485.179-.639.429-.485-.477-.791-.445-.906.103-.417-.047-.663.143-.746.588a1.69 1.69 0 0 0-.703.68c.25.571.702.662 1.342.273.218.167.488.203.794.1.381.15.822.15 1.331 0a.587.587 0 0 1 .274-.47c.325-.011.476.144.472.47l.318-.048c.31-.89.083-1.35-.683-1.378-.215-.465-.497-.711-.854-.747ZM149.866 18.959c.46.024.949.19 1.501.48l.21-.063.155.274.477.115.155.056h.333c.171.397.489.715.949.945l.175.747.04.166c-.008.028.02.064.055.1v.159l.052.377.266.206c.072.405.048.814-.052 1.231l.052.151c-.385.195-.683.517-.909.957a1.05 1.05 0 0 1-.632-.325 3.386 3.386 0 0 1-.866-.052l-.365.167c-.254 0-.568-.056-.969-.167h-.306c-.202 0-.437.024-.703.111h-.627c-.254-.083-.532-.099-.87-.055a2.156 2.156 0 0 0-.468 1.008c.238.41.393.938.468 1.589.338.091.572.27.755.54l.425-.103c.476.635 1.036.738 1.691.31.163 0 .33.055.501.158a2.633 2.633 0 0 1 1.052-.635c.044-.318.227-.6.54-.846a2.6 2.6 0 0 0-.166-.528c.361.028.734-.052 1.127-.226l.159.055c.04.115.135.242.266.37-.079.273-.079.58 0 .901-.353.23-.611.56-.802.957-.04 0-.079.008-.107.052-.032-.012-.072.02-.107.06l-.155.043a1.126 1.126 0 0 0-.215.588c-.135.155-.317.182-.54.115-.262.29-.639.46-1.112.528-.329.23-.667.23-1.02 0a2.698 2.698 0 0 0-1.116.095 2.061 2.061 0 0 0-1.073-.468c-.266-.405-.655-.743-1.167-1.017-.064-.147-.195-.286-.365-.42a.8.8 0 0 0-.425-.47 1.565 1.565 0 0 0-.282-.972c-.008-.322-.12-.668-.31-1.005a1.966 1.966 0 0 0-.111-1.064.99.99 0 0 1 .214-.47c-.012-.297.056-.619.203-.956l-.112-.33c.29-.29.493-.655.604-1.1a.867.867 0 0 0 .258-.488l.167-.155.048-.167c.139-.115.317-.199.536-.258l.111-.1c.036-.182.103-.38.207-.591.413.051.822-.052 1.215-.318.333.024.647-.063.985-.262Zm.635 1.648a.86.86 0 0 0-.631.429c-.485-.477-.783-.445-.906.103-.409-.047-.655.143-.746.588a1.61 1.61 0 0 0-.687.68c.246.571.691.662 1.338.273.218.167.48.203.79.1.385.15.834.15 1.331 0a.62.62 0 0 1 .274-.47c.325-.011.484.144.476.47l.322-.048c.302-.89.083-1.35-.687-1.378-.231-.465-.509-.711-.874-.747Z" fill="#000" stroke="#000" stroke-width=".15" stroke-miterlimit="10"/><path d="M41.06 14.559h-.064.119-.056.108-.052.111-.056.056l.266.218c.17 0 .318-.052.449-.159.365.064.762.036 1.2-.06h.17c.206.422.552.712 1.048.866.06.23.012.453-.119.648.131.317.131.659 0 1.024.056.123.111.258.12.425a.764.764 0 0 0-.219.445.868.868 0 0 1 .155.322l-.203.595.147.104c.028.166.02.345-.043.544.162.27.206.568.162.917l.104.54c-.171.509-.191 1.076-.048 1.676a.983.983 0 0 1-.179.485v.214c.048.25.028.5-.043.762l.162.215v1.021l.06.11v.481l.048.175a.436.436 0 0 0-.048.37c-.012.198.068.38.21.544l-.047.17h-.06.06-.06c.048.06.123.06.223 0 .476.54.56.664 1.322.378.306.135.7.218 1.148.262l.17.115c.183.063.314.214.378.425-.29-.072-.473.04-.544.325.96.382.611.652-1.045.799h-.774l-.167-.044-.445.107-.548.056a2.537 2.537 0 0 0-.754-.266c-.286.083-.62.11-.99.107l-.17.107-.17.056c-.505-.254-1.133-.362-1.867-.314-.199-.056-.072-.072-.37-.056l-.234-.063h-.322a1.648 1.648 0 0 0-.484-.433c.08-.556.393-1.02.925-1.414.179.008.413.052.66.115.48-.127.663-.143 1.31-.051h.234l.147-.064c.016-.13-.047-.274-.147-.42.167-.128.346-.287.544-.49-.075-.226-.087-.496-.051-.813l.051-.636.048-.655v-.37l-.047-.226c.051-.198.09-.456.107-.758l-.108-.219.163-.166c-.08-.306-.08-.66 0-1.077-.063-.11-.099-.25-.115-.42l.115-.442a1.277 1.277 0 0 0-.44-.591l.496-.43a4.363 4.363 0 0 0-.17-.495l.225-.318c-.11-.449-.154-.993-.11-1.629-.04-.13-.08-.293-.164-.488-.135-.08-.293-.091-.504-.048-.25-.234-.457-.174-.647.16-.246-.525-.246-.684-.842-.481-.274-.183-.084-.274-.5-.274l-.279-.318a.857.857 0 0 0 .052-.484c.143-.167.29-.394.397-.652.258.04.588.04.99 0l-.323.06c.08.143.207.226.386.262l.214-.262-.488-.12h.055Z" fill="#000"/><path d="M41.06 14.559h-.064.119-.056Zm0 0h.106-.051.111-.056.056l.266.218c.17 0 .318-.052.449-.159.365.064.762.036 1.2-.06h.17c.206.422.552.712 1.048.866.06.23.012.453-.119.648.131.317.131.659 0 1.024.056.123.111.258.12.425a.764.764 0 0 0-.219.445.868.868 0 0 1 .155.322l-.203.595.147.104c.028.166.02.345-.043.544.162.27.206.568.162.917l.104.54c-.171.509-.191 1.076-.048 1.676a.983.983 0 0 1-.179.485v.214c.048.25.028.5-.043.762l.162.215v1.021l.06.11v.481l.048.175a.436.436 0 0 0-.048.37c-.012.198.068.38.21.544l-.047.17h-.06.06-.06c.048.06.123.06.223 0 .476.54.56.664 1.322.378.306.135.7.218 1.148.262l.17.115c.183.063.314.214.378.425-.29-.072-.473.04-.544.325.96.382.611.652-1.045.799h-.774l-.167-.044-.445.107-.548.056a2.537 2.537 0 0 0-.754-.266c-.286.083-.62.11-.99.107l-.17.107-.17.056c-.505-.254-1.133-.362-1.867-.314-.199-.056-.072-.072-.37-.056l-.234-.063h-.322a1.648 1.648 0 0 0-.484-.433c.08-.556.393-1.02.925-1.414.179.008.413.052.66.115.48-.127.663-.143 1.31-.051h.234l.147-.064c.016-.13-.047-.274-.147-.42.167-.128.346-.287.544-.49-.075-.226-.087-.496-.051-.813l.051-.636.048-.655v-.37l-.047-.226c.051-.198.09-.456.107-.758l-.108-.219.163-.166c-.08-.306-.08-.66 0-1.077-.063-.11-.099-.25-.115-.42l.115-.442a1.277 1.277 0 0 0-.44-.591l.496-.43a4.363 4.363 0 0 0-.17-.495l.225-.318c-.11-.449-.154-.993-.11-1.629-.04-.13-.08-.293-.164-.488-.135-.08-.293-.091-.504-.048-.25-.234-.457-.174-.647.16-.246-.525-.246-.684-.842-.481-.274-.183-.084-.274-.5-.274l-.279-.318a.857.857 0 0 0 .052-.484c.143-.167.29-.394.397-.652.258.04.588.04.99 0l-.323.06c.08.143.207.226.386.262l.214-.262-.488-.12h.055Z" stroke="#000" stroke-width=".15" stroke-miterlimit="10"/><path d="M21.663 17.852c.195.067.385.202.572.4.143-.011.314.017.524.064.048.131.12.242.207.35.965-.469 1.58-.044 1.886 1.274l.417.346a5.714 5.714 0 0 1-.052.469l.203.155c-.04.285-.163.555-.365.825l-.155.41-.044.17c-.044.02-.076.052-.103.115-.37.096-.822.14-1.362.116-.183-.759-.445-1.215-.79-1.394l.059-.338c.31-.198.457-.504.468-.937-.397-.072-.861-.072-1.405 0h-.529l-.262.183h-.42c-.187.08-.358.214-.513.393-.77.54-1.175 1.35-1.211 2.43-.306.528-.33 1.025-.111 1.51-.274.976.015 1.739.83 2.259.143.385.432.516.841.405.33.711 1.045.918 2.141.632.044-.203.159-.417.322-.632.413.024.703-.21.838-.695.337-.008.603-.206.782-.584h.318l.103.302c.314.123.576.354.778.695a1.6 1.6 0 0 0-.413.572l-.103.064c-.119.127-.242.317-.37.58-.039.003-.067.043-.106.114l-.322.227-.306.46-.1.175-1.155.469h-.167l-.198-.107a.584.584 0 0 1-.473.218.578.578 0 0 0-.365-.218 3.86 3.86 0 0 1-.266.453h-.258c-.25-.219-.568-.31-.945-.29l-.358-.405c-.246-.012-.54-.108-.89-.235a3.107 3.107 0 0 0-.27-.457l-.047-.115a2.931 2.931 0 0 0-.89-.81v-.576c-.73-.643-.93-1.66-.568-3.07l-.222-.23c.028-.206.095-.449.222-.695-.075-.37-.035-.747.147-1.152.048-.218.068-.468.048-.762.266-.274.524-.667.79-1.152.19-.055.381-.147.576-.294l.215-.794c.4.083.75-.047 1.04-.417.322.115.556 0 .687-.345h.31c.25.047.512.004.79-.131Z" fill="#000" stroke="#000" stroke-width=".15" stroke-miterlimit="10"/></svg>